HIERARCHY
ROOT Hips
{
  OFFSET 0 97.0425 0
  CHANNELS 6 Xposition Yposition Zposition Zrotation Xrotation Yrotation
  JOINT Spine
  {
    OFFSET 0 4.48767 6.73151
    CHANNELS 3 Zrotation Xrotation Yrotation
    JOINT Spine1
    {
      OFFSET 0 0 8.97534
      CHANNELS 3 Zrotation Xrotation Yrotation
      JOINT Spine2
      {
        OFFSET 0 0 8.97534
        CHANNELS 3 Zrotation Xrotation Yrotation
        JOINT Spine3
        {
          OFFSET 0 0 8.97534
          CHANNELS 3 Zrotation Xrotation Yrotation
          JOINT Neck
          {
            OFFSET 0 -3.36575 23.5603
            CHANNELS 3 Zrotation Xrotation Yrotation
            JOINT Head
            {
              OFFSET 0 0 12.3411
              CHANNELS 3 Zrotation Xrotation Yrotation
              JOINT HeadEnd
              {
                OFFSET 0 0 14.5288
                CHANNELS 3 Zrotation Xrotation Yrotation
                End Site
                {
                  OFFSET 0 0 0
                }
              }
            }
          }
          JOINT RightShoulder
          {
            OFFSET -3.07483 -5.12471 16.6041
            CHANNELS 3 Zrotation Xrotation Yrotation
            JOINT RightArm
            {
              OFFSET 15.2716 0 0
              CHANNELS 3 Zrotation Xrotation Yrotation
              JOINT RightForeArm
              {
                OFFSET 29.7895 0 0
                CHANNELS 3 Zrotation Xrotation Yrotation
                JOINT RightForeArmRoll
                {
                  OFFSET 12.2977 0 0
                  CHANNELS 3 Zrotation Xrotation Yrotation
                  JOINT RightHand
                  {
                    OFFSET 12.7101 0 0
                    CHANNELS 3 Zrotation Xrotation Yrotation
                    JOINT RightHandEnd
                    {
                      OFFSET 7.20568 0 0
                      CHANNELS 3 Zrotation Xrotation Yrotation
                      JOINT R_FingersEnd
                      {
                        OFFSET 7.20568 0 0
                        CHANNELS 3 Zrotation Xrotation Yrotation
                        End Site
                        {
                          OFFSET 0 0 0
                        }
                      }
                    }
                    JOINT RightHandThumb1
                    {
                      OFFSET 2.88227 -4.80378 1.92151
                      CHANNELS 3 Zrotation Xrotation Yrotation
                      JOINT RightHandThumb2
                      {
                        OFFSET 7.20568 0 0
                        CHANNELS 3 Zrotation Xrotation Yrotation
                        End Site
                        {
                          OFFSET 0 0 0
                        }
                      }
                    }
                  }
                }
              }
            }
          }
          JOINT LeftShoulder
          {
            OFFSET 3.07483 -5.12471 16.6041
            CHANNELS 3 Zrotation Xrotation Yrotation
            JOINT LeftArm
            {
              OFFSET 15.2716 0 0
              CHANNELS 3 Zrotation Xrotation Yrotation
              JOINT LeftForeArm
              {
                OFFSET 29.7895 0 0
                CHANNELS 3 Zrotation Xrotation Yrotation
                JOINT LeftForeArmRoll
                {
                  OFFSET 12.2977 0 0
                  CHANNELS 3 Zrotation Xrotation Yrotation
                  JOINT LeftHand
                  {
                    OFFSET 12.7101 0 0
                    CHANNELS 3 Zrotation Xrotation Yrotation
                    JOINT LeftHandEnd
                    {
                      OFFSET 7.20568 0 0
                      CHANNELS 3 Zrotation Xrotation Yrotation
                      JOINT L_FingersEnd
                      {
                        OFFSET 7.20568 0 0
                        CHANNELS 3 Zrotation Xrotation Yrotation
                        End Site
                        {
                          OFFSET 0 0 0
                        }
                      }
                    }
                    JOINT LeftHandThumb1
                    {
                      OFFSET 2.88227 -4.80378 -1.92151
                      CHANNELS 3 Zrotation Xrotation Yrotation
                      JOINT LeftHandThumb2
                      {
                        OFFSET 7.20568 0 0
                        CHANNELS 3 Zrotation Xrotation Yrotation
                        End Site
                        {
                          OFFSET 0 0 0
                        }
                      }
                    }
                  }
                }
              }
            }
          }
        }
      }
    }
  }
  JOINT RightUpLeg
  {
    OFFSET -9.12199 0 -2.66485
    CHANNELS 3 Zrotation Xrotation Yrotation
    JOINT RightLeg
    {
      OFFSET 40.2882 0 0
      CHANNELS 3 Zrotation Xrotation Yrotation
      JOINT RightFoot
      {
        OFFSET 43.5978 0 0
        CHANNELS 3 Zrotation Xrotation Yrotation
        JOINT RightToeBase
        {
          OFFSET 18.3185 0 0
          CHANNELS 3 Zrotation Xrotation Yrotation
          JOINT RightToeBaseEnd
          {
            OFFSET 7.37959 0 0
            CHANNELS 3 Zrotation Xrotation Yrotation
            End Site
            {
              OFFSET 0 0 0
            }
          }
        }
      }
    }
  }
  JOINT LeftUpLeg
  {
    OFFSET 9.12199 0 -2.66485
    CHANNELS 3 Zrotation Xrotation Yrotation
    JOINT LeftLeg
    {
      OFFSET 40.2882 0 0
      CHANNELS 3 Zrotation Xrotation Yrotation
      JOINT LeftFoot
      {
        OFFSET 43.5978 0 0
        CHANNELS 3 Zrotation Xrotation Yrotation
        JOINT LeftToeBase
        {
          OFFSET 18.3185 0 0
          CHANNELS 3 Zrotation Xrotation Yrotation
          JOINT LeftToeBaseEnd
          {
            OFFSET 7.37959 0 0
            CHANNELS 3 Zrotation Xrotation Yrotation
            End Site
            {
              OFFSET 0 0 0
            }
          }
        }
      }
    }
  }
}
MOTION
Frames:	9
Frame Time:	0.0416667
-0.435902 97.2055 -3.14018 -39.5758 -89.3995 -39.7728 0.0358021 -10.1187 0.309784 -0.0066177 4.53136 0.0940139 -0.0672871 6.5281 0.0185135 -0.106071 0.179049 -0.470036 -0.0580713 9.35262 -0.189559 -0.699995 -10.1 -0.0699385 -3.97569e-016 -1.98785e-016 4.65902e-017 -1.34141 3.59902 176.746 -4.19802 -6.53004 -51.1056 -29.6205 -3.18055e-015 -8.34896e-015 5.50902e-015 6.43591 7.60172e-015 -2.56152 3.97569e-016 6.17523 -0 -90 -6.36111e-015 3.18055e-015 1.88845e-015 6.36111e-015 165 10 180 6.36111e-015 -1.59028e-015 -1.59028e-015 2.82719 4.11239 2.16157 -19.4001 1.02207 52.3468 -16.1232 6.36111e-015 7.95139e-016 -9.30913e-015 -3.34736 3.98249e-015 3.40742 -4.77083e-015 -23.0909 -0 90 -1.21721e-031 -2.78299e-015 -2.38542e-015 -3.18055e-015 165 10 -180 -4.82771e-031 -6.95746e-015 -3.97569e-015 -8.92797 -1.41499 94.1893 14.1794 -1.59028e-015 -2.78299e-015 -84.0883 4.49358 -1.78302 -19.5326 -1.08089e-015 3.18055e-015 -6.89673e-034 -2.48481e-017 -1.59028e-015 -0.530303 0.386911 85.0482 11.0442 7.95139e-016 2.70844e-015 -82.129 -7.78798 -0.569426 -19.3459 7.14382e-016 -1.19271e-015 9.93923e-017 -4.72114e-016 -3.97569e-016 
-0.444062 97.2089 -3.21483 -40.6836 -89.3666 -40.828 0.0412245 -10.0992 0.301071 -0.00305416 4.57473 0.0977396 -0.0572662 6.36841 -0.0779511 -0.0683741 0.16068 -0.499543 -0.0814795 9.54902 -0.116651 -0.66735 -10.0841 -0.0262012 -0 0 1.2424e-017 -1.49377 3.42804 177.694 -2.18112 -5.37776 -47.758 -29.7072 7.95139e-015 -3.97569e-015 4.20961e-015 7.37414 -8.0177e-015 -2.68889 3.10561e-006 6.04418 -0 -90 6.36111e-015 6.16232e-015 1.59028e-015 6.36111e-015 165 10 -180 -3.18055e-015 1.59028e-015 1.59028e-015 2.67382 3.77785 1.29782 -17.5953 0.786096 48.9289 -15.6964 1.59028e-015 3.18055e-015 6.8944e-015 -3.48913 8.76277e-015 3.58301 0.000178726 -23.4387 -0 90 3.18055e-015 -1.39149e-015 0 3.18055e-015 165 10 180 3.18055e-015 4.77083e-015 5.96354e-015 -8.81223 -1.47744 94.1045 14.189 0 -1.98785e-015 -84.0528 4.47279 -1.68884 -19.5211 -1.13059e-015 -0 -9.93923e-017 6.21202e-017 -0 -0.217981 0.206695 84.9552 11.2177 1.49089e-015 1.71452e-015 -82.1192 -7.73243 -0.274993 -19.4004 -9.47333e-017 3.97569e-015 4.96962e-017 2.842e-016 -3.97569e-016 
-0.458638 97.2093 -3.31427 -37.3664 -89.3374 -37.4924 0.0392834 -10.1035 0.3074 -0.00813561 4.58071 0.0834772 -0.0460355 6.2459 -0.104098 -0.0983588 0.179082 -0.498525 0.056801 9.62427 -0.13875 -0.648195 -10.0296 0.014967 1.98785e-016 1.98785e-016 1.55301e-017 -1.45798 3.32788 178.55 -0.494808 -4.24058 -44.3389 -29.9077 -3.18055e-015 1.98785e-015 -3.23308e-015 7.52666 4.01025e-016 -2.44918 8.13134e-006 5.96921 -0 -90 -3.89506e-031 1.98785e-016 0 -3.18055e-015 165 10 -180 -3.18055e-015 2.38542e-015 3.97569e-015 2.60836 3.40189 0.383143 -16.1018 0.573537 45.3925 -15.4548 0 -9.54166e-015 3.23825e-015 -4.14987 7.97229e-016 3.5232 -0.00031132 -23.9744 -0 90 3.18055e-015 -3.77691e-015 1.19271e-015 -0 165 10 -180 -3.5863e-031 -3.97569e-015 -5.1684e-015 -8.78914 -1.5921 94.0604 14.2202 3.18055e-015 -2.38542e-015 -84.0152 4.45559 -1.6469 -19.5892 2.98177e-016 -3.18055e-015 -0 -1.49089e-016 -0 -0.339935 0.0717907 84.9403 11.2885 -4.96962e-016 -7.45443e-016 -82.1194 -7.73591 -0.37902 -19.432 8.41729e-016 -5.56597e-015 4.96962e-017 7.14382e-017 3.97569e-016 
-0.421265 97.2186 -3.32385 -44.4751 -89.3924 -44.6299 0.0385286 -10.1042 0.290749 -0.0082591 4.58023 0.0817085 -0.0726218 6.23978 -0.129802 -0.0834054 0.185019 -0.489065 0.0695442 9.77738 -0.0444483 -0.482303 -10.0382 0.0525346 1.83194e-034 1.98785e-016 -5.28022e-017 -1.39491 3.14322 179.6 0.873046 -3.14699 -41.0659 -30.0642 -9.14409e-015 1.98785e-016 -3.26352e-015 7.92055 6.02098e-016 -2.35176 -4.94439e-005 5.9767 -0 -90 -1.27222e-014 -3.18055e-015 0 -0 165 10 180 -3.18055e-015 -4.37326e-015 -1.78906e-015 2.58932 3.12411 -0.45275 -14.8708 0.202679 41.7593 -15.2196 0 -7.95139e-015 -1.5121e-016 -5.43158 -1.59745e-015 3.08667 -9.57055e-006 -24.3692 -0 90 3.18055e-015 -1.63997e-015 -1.98785e-016 -3.18055e-015 165 10 -180 -6.36111e-015 0 6.36111e-015 -8.86721 -1.52168 94.1369 14.2079 0 -3.97569e-016 -83.9958 4.4878 -1.76614 -19.6654 9.93923e-017 4.77083e-015 9.93923e-017 -9.93923e-017 -0 -0.474588 0.223965 85.0103 11.187 1.39149e-015 4.96962e-015 -82.1017 -7.75107 -0.552272 -19.4804 -3.45544e-016 -3.97569e-016 -2.48481e-017 -3.4632e-016 -0 
-0.391458 97.2157 -3.3609 -51.837 -89.4244 -52.0314 0.0377748 -10.0827 0.27012 -0.010349 4.62306 0.0577271 -0.0270151 6.15453 -0.107264 -0.088054 0.179036 -0.473749 0.15879 9.85165 -0.0287227 -0.42067 -9.99056 0.0812128 -1.98785e-016 0 3.10601e-018 -1.12503 2.73766 -179.243 2.3749 -2.28092 -37.958 -30.3519 2.38542e-015 -3.77691e-015 -6.71098e-015 7.71028 2.60778e-015 -2.00525 1.59028e-015 5.89134 -0 -90 6.36111e-015 -4.37326e-015 -6.36111e-015 -3.18055e-015 165 10 -180 -2.83197e-032 4.47266e-016 3.62782e-015 2.5068 2.82371 -1.40751 -14.0608 0.0586555 38.29 -14.966 -4.77083e-015 2.22639e-014 -3.41471e-015 -5.6062 -2.39688e-015 3.50363 3.18055e-015 -24.3589 -0 90 -6.36111e-015 1.39149e-015 3.97569e-016 -3.18055e-015 165 10 180 -3.18055e-015 3.18055e-015 -0 -8.76845 -1.4563 94.2 14.1822 0 7.95139e-016 -83.999 4.49248 -1.69332 -19.6608 -3.47873e-016 -0 -9.93923e-017 0 -0 -0.922654 0.445743 85.1228 10.9624 5.96354e-016 8.44835e-016 -82.0876 -7.85958 -1.02371 -19.5551 -1.23076e-016 -3.57812e-015 -0 -5.19286e-016 -0 
-0.370968 97.2227 -3.41152 -56.3644 -89.3998 -56.5666 0.0404752 -10.0635 0.251918 -0.00679982 4.67215 0.0368459 0.0290763 6.01657 -0.157378 -0.0322868 0.144039 -0.482834 0.101005 9.96689 0.107647 -0.369192 -9.99567 0.0569248 1.98785e-016 -1.98785e-016 -4.96962e-017 -1.28188 2.80096 -178.148 3.32971 -0.744152 -34.6616 -30.6148 -4.17448e-015 -5.96354e-016 -4.07465e-015 6.83944 7.50785e-015 -1.725 -8.83687e-006 5.21097 -0 -90 -4.62538e-031 5.1684e-015 -1.59028e-015 -0 165 10 -180 -6.36111e-015 -1.54058e-015 3.52843e-015 2.22125 2.64174 -2.30016 -12.9114 -0.669502 34.8589 -14.7564 -1.59028e-015 -5.1684e-015 2.82033e-015 -5.17724 -3.99198e-015 3.73048 3.90657e-005 -23.8816 -0 90 -6.36111e-015 7.95139e-016 1.19271e-015 -3.18055e-015 165 10 180 -3.18055e-015 3.18055e-015 -1.59028e-015 -8.85936 -1.53048 94.2406 14.2707 0 -1.19271e-015 -83.9807 4.48756 -1.85088 -19.7501 -1.16786e-015 -1.59028e-015 -9.93923e-017 1.49089e-016 -0 -0.617284 0.348554 85.1226 11.1028 0 1.39149e-015 -82.0937 -7.71495 -0.792341 -19.6789 1.90243e-016 -3.97569e-016 1.2424e-017 9.86158e-016 -0 
-0.340728 97.2205 -3.42774 -57.0454 -89.4535 -57.287 0.0313082 -10.0764 0.222394 -0.0129602 4.6724 0.00279936 0.0151438 5.94231 -0.0896128 -0.0744362 0.156948 -0.419106 0.139355 10.0031 0.0653679 -0.375435 -9.99763 0.0439365 1.98785e-016 -3.97569e-016 5.59082e-017 -1.1722 2.63105 -177.108 4.23428 0.556062 -31.4796 -30.7809 5.51627e-015 -4.24902e-015 1.92623e-017 6.31935 -1.75e-016 -1.44784 0.000144129 4.80727 -0 -90 -4.62538e-031 7.55382e-015 1.59028e-015 6.36111e-015 165 10 -180 3.18055e-015 -2.6339e-015 3.18055e-015 1.96588 2.34391 -3.21651 -12.0775 -0.886416 31.2332 -14.596 0 3.97569e-016 -1.81299e-016 -5.21117 -1.9961e-015 3.98716 -0.000201783 -23.1401 -0 90 -6.36111e-015 -1.98785e-016 7.95139e-016 -0 165 10 180 -3.18055e-015 0 7.95139e-016 -9.10203 -1.54085 94.3257 14.3018 3.18055e-015 1.19271e-015 -83.9992 4.45864 -2.0584 -19.803 1.2424e-015 1.59028e-015 -6.89673e-033 -1.2424e-016 -3.18055e-015 -0.523379 0.363293 85.1675 11.0918 -1.98785e-016 3.47873e-016 -82.0719 -7.64476 -0.672454 -19.7715 7.46996e-016 -1.59028e-015 -4.96962e-017 7.43889e-016 3.97569e-016 
-0.332757 97.2274 -3.4581 -56.0945 -89.4867 -56.3408 0.0255008 -10.086 0.18294 -0.0175182 4.68389 -0.0347077 0.00355882 5.83078 -0.0206938 -0.0972177 0.134838 -0.371335 0.128888 10.0727 0.0896907 -0.398548 -10.0246 -0.0127025 9.93923e-017 -3.97569e-016 -7.60973e-017 -1.18886 2.4816 -176.078 4.74021 1.83252 -28.3428 -30.8742 -2.38542e-015 -8.34896e-015 -2.97079e-017 5.68971 2.99653e-016 -1.10388 -1.50147e-005 4.37794 -0 -90 -9.54166e-015 1.59028e-015 1.59028e-015 -0 165 10 180 3.18055e-015 -5.96354e-016 3.97569e-016 1.76316 2.16068 -4.09076 -11.5865 -1.06345 27.5345 -14.327 -7.95139e-016 -9.93923e-015 -1.95401e-016 -5.61402 -1.99743e-015 4.30283 0.000128539 -22.375 -0 90 -1.06991e-030 5.96354e-016 0 3.18055e-015 165 10 -180 -0 0 1.59028e-015 -8.94498 -1.48635 94.3178 14.2203 -1.59028e-015 -3.97569e-016 -83.9795 4.48549 -1.86207 -19.8415 -5.96354e-016 7.95139e-015 0 1.73937e-016 -0 -0.503835 0.367244 85.1749 11.0615 -7.95139e-016 -2.13694e-015 -82.0371 -7.59371 -0.634876 -19.857 -4.09993e-016 7.95139e-016 -4.96962e-017 -1.0871e-017 -3.97569e-016 
-0.308123 97.2402 -3.4619 -62.1646 -89.5024 -62.4351 0.023009 -10.1062 0.16955 -0.0165349 4.66314 -0.0209615 -0.127459 5.78766 -0.0629633 -0.0582333 0.129768 -0.330915 -0.0237215 10.249 0.366015 -0.12861 -10.2505 -0.111643 -9.93923e-017 0 9.31803e-018 -0.836419 2.10807 -174.821 5.33407 2.73108 -25.5413 -30.9768 1.19271e-015 -3.57812e-015 1.62808e-017 4.68216 -1.9945e-016 -0.884698 -4.77083e-015 4.75504 -0 -90 -1.27222e-014 -7.95139e-016 3.18055e-015 9.54166e-015 165 10 180 -9.54166e-015 4.57205e-015 1.2921e-015 1.40685 1.65259 -4.85692 -10.8491 -0.811382 23.9454 -14.2251 7.95139e-016 -3.97569e-015 5.95376e-015 -6.49485 -3.60124e-015 4.4201 1.98785e-015 -21.7337 -0 90 3.18055e-015 3.97569e-016 7.95139e-016 -0 165 10 -180 6.36111e-015 -3.18055e-015 1.59028e-015 -8.87599 -1.41886 94.3651 14.183 0 2.38542e-015 -83.9542 4.55193 -1.83349 -19.9253 -1.2424e-016 -3.18055e-015 -1.98785e-016 -1.98785e-016 -0 -0.486351 0.437463 85.2173 11.0274 3.97569e-016 -8.94531e-016 -82.0191 -7.5516 -0.655811 -19.8955 -7.37677e-016 -5.56597e-015 9.93923e-017 2.95071e-017 -0 
